<svg width="21" height="21" viewBox="0 0 21 21" fill="none" xmlns="http://www.w3.org/2000/svg">
<path d="M20.4805 5.18C20.4794 4.82015 20.4466 4.46109 20.3824 4.107C20.3104 3.67363 20.1734 3.25358 19.9761 2.861C19.7602 2.44864 19.479 2.07381 19.1435 1.751C18.6368 1.25545 18.0109 0.898653 17.3261 0.715C16.6974 0.562646 16.0513 0.49372 15.4046 0.51L15.4016 0.5H5.595V0.51C5.22709 0.507359 4.8593 0.524048 4.49314 0.56C4.09199 0.602501 3.69708 0.691086 3.31623 0.824C2.68868 1.06034 2.12574 1.44122 1.67311 1.93571C1.22049 2.43021 0.89094 3.02438 0.711217 3.67C0.559803 4.29331 0.490829 4.93377 0.506058 5.575L0.500054 15.413C0.498549 15.8589 0.528648 16.3043 0.590124 16.746C0.657355 17.2126 0.795733 17.6662 1.00044 18.091C1.28861 18.6585 1.69911 19.1551 2.20237 19.545C2.5622 19.8311 2.96977 20.0515 3.4063 20.196C4.04665 20.3936 4.71366 20.4914 5.38383 20.486C5.80416 20.489 6.22348 20.5 6.64281 20.498C9.69217 20.485 12.7415 20.52 15.7899 20.479C16.1931 20.4704 16.5948 20.4279 16.9908 20.352C17.7385 20.2202 18.4344 19.8818 18.9994 19.375C19.6649 18.7967 20.1296 18.0221 20.3264 17.163C20.4478 16.5877 20.5059 16.0009 20.4995 15.413V15.296C20.4995 15.25 20.4825 5.312 20.4805 5.181M17.8024 14.431C17.6743 14.731 17.0278 14.979 15.933 15.148C15.8309 15.164 15.7869 15.33 15.7278 15.602C15.7038 15.714 15.6778 15.824 15.6448 15.939C15.6347 15.9877 15.6072 16.031 15.5674 16.0608C15.5275 16.0907 15.4782 16.105 15.4286 16.101H15.4106C15.3062 16.097 15.2024 16.0836 15.1004 16.061C14.8301 16.0048 14.5548 15.976 14.2787 15.975C14.0802 15.9755 13.8821 15.9922 13.6863 16.025C13.2733 16.1296 12.8891 16.3258 12.5624 16.599C12.01 17.0699 11.3162 17.343 10.5909 17.375C10.5535 17.3749 10.5161 17.3739 10.4788 17.372C10.4545 17.374 10.4301 17.375 10.4057 17.375C9.68033 17.3433 8.98638 17.0701 8.4342 16.599C8.10736 16.3259 7.72327 16.1297 7.31033 16.025C7.11454 15.9922 6.91639 15.9755 6.71787 15.975C6.44186 15.978 6.16689 16.0091 5.89723 16.068C5.79495 16.0916 5.69081 16.1063 5.58599 16.112C5.53317 16.1182 5.47994 16.1045 5.43666 16.0736C5.39337 16.0428 5.36313 15.9969 5.35181 15.945C5.31927 15.8329 5.29156 15.7195 5.26874 15.605C5.2087 15.332 5.16567 15.165 5.06359 15.149C3.96874 14.981 3.32224 14.732 3.19314 14.431C3.17991 14.4009 3.17212 14.3688 3.17012 14.336C3.16781 14.2928 3.18155 14.2502 3.20869 14.2164C3.23583 14.1827 3.27448 14.1601 3.31723 14.153C4.22266 13.9893 5.03855 13.5046 5.61501 12.788C5.93166 12.4208 6.1948 12.0108 6.39662 11.57L6.40062 11.562C6.46036 11.4644 6.49803 11.355 6.51099 11.2413C6.52396 11.1276 6.51191 11.0125 6.47568 10.904C6.33557 10.572 5.86821 10.424 5.55897 10.326C5.48916 10.305 5.42006 10.2816 5.35181 10.256C5.0776 10.148 4.62725 9.919 4.68729 9.604C4.73313 9.48526 4.815 9.38381 4.92142 9.31388C5.02783 9.24394 5.15348 9.20902 5.28075 9.214C5.34272 9.21258 5.40424 9.22487 5.46089 9.25C5.69139 9.36803 5.9447 9.43489 6.20347 9.446C6.35758 9.45705 6.51028 9.41035 6.6318 9.315C6.62379 9.169 6.61479 9.023 6.60478 8.877C6.46425 7.89145 6.5245 6.8877 6.78192 5.926C7.08447 5.2354 7.58391 4.64915 8.21789 4.24047C8.85186 3.83178 9.59227 3.61876 10.3467 3.628L10.6419 3.626C11.3972 3.61636 12.1385 3.82914 12.7735 4.2378C13.4085 4.64647 13.9091 5.23292 14.2127 5.924C14.47 6.88708 14.5299 7.8922 14.3888 8.879L14.3858 8.926L14.3628 9.315C14.4731 9.40231 14.6104 9.4483 14.7511 9.445C14.9952 9.42665 15.2332 9.36039 15.4516 9.25C15.5236 9.21865 15.6013 9.20297 15.6798 9.204C15.7693 9.2037 15.858 9.22068 15.941 9.254L15.945 9.256C16.0389 9.27834 16.124 9.32814 16.1894 9.39903C16.2548 9.46992 16.2976 9.55869 16.3123 9.654C16.3153 9.807 16.2022 10.035 15.6428 10.256C15.5857 10.278 15.5127 10.302 15.4356 10.326C15.1254 10.424 14.659 10.572 14.5189 10.904C14.4826 11.0123 14.4704 11.1272 14.4832 11.2407C14.496 11.3542 14.5335 11.4635 14.593 11.561L14.597 11.57C14.8767 12.2086 15.3003 12.7739 15.8349 13.2218C16.3694 13.6697 17.0003 13.9881 17.6784 14.152C17.7209 14.1593 17.7593 14.182 17.7863 14.2157C17.8132 14.2494 17.8268 14.2919 17.8245 14.335C17.8225 14.3681 17.8147 14.4006 17.8014 14.431" fill="white"/>
</svg>
