<svg width="17" height="16" viewBox="0 0 17 16" fill="none" xmlns="http://www.w3.org/2000/svg">
<path d="M11.7 11.2V14.4C11.7 15.28 10.98 16 10.1 16L2.1 16C1.67565 16 1.26869 15.8314 0.968629 15.5314C0.668571 15.2313 0.5 14.8243 0.5 14.4L0.5 6.4C0.5 5.97565 0.668571 5.56869 0.968629 5.26863C1.26869 4.96857 1.67565 4.8 2.1 4.8H5.3V1.6C5.3 1.17565 5.46857 0.768687 5.76863 0.468629C6.06869 0.168571 6.47565 0 6.9 0H14.9C15.3243 0 15.7313 0.168571 16.0314 0.468629C16.3314 0.768687 16.5 1.17565 16.5 1.6V9.6C16.5 10.48 15.78 11.2 14.9 11.2H11.7ZM10.1 11.2H6.9C6.47565 11.2 6.06869 11.0314 5.76863 10.7314C5.46857 10.4313 5.3 10.0243 5.3 9.6L5.3 6.4H2.1L2.1 14.4L10.1 14.4V11.2ZM14.9 9.6L14.9 1.6L6.9 1.6L6.9 9.6H14.9Z" fill="white"/>
</svg>
