<svg width="21" height="15" viewBox="0 0 21 15" fill="none" xmlns="http://www.w3.org/2000/svg">
<path d="M10.5644 0.475098H10.6756C11.7032 0.478848 16.9098 0.51635 18.3136 0.893874C18.738 1.00909 19.1247 1.23367 19.4351 1.54517C19.7455 1.85668 19.9688 2.24419 20.0825 2.66898C20.2087 3.14401 20.2975 3.7728 20.3575 4.42159L20.37 4.5516L20.3975 4.87662L20.4075 5.00663C20.4888 6.1492 20.4988 7.21927 20.5 7.45303V7.54679C20.4988 7.78931 20.4875 8.93188 20.3975 10.122L20.3875 10.2532L20.3762 10.3832C20.3137 11.0983 20.2212 11.8083 20.0825 12.3308C19.9688 12.7556 19.7455 13.1431 19.4351 13.4547C19.1247 13.7662 18.738 13.9907 18.3136 14.106C16.8635 14.496 11.3519 14.5235 10.5881 14.5247H10.4106C10.0243 14.5247 8.42675 14.5172 6.75164 14.4597L6.53913 14.4522L6.43037 14.4472L6.21661 14.4385L6.00284 14.4297C4.61526 14.3685 3.29392 14.2697 2.68514 14.1047C2.26089 13.9896 1.87427 13.7652 1.56388 13.4539C1.25349 13.1427 1.03019 12.7554 0.916276 12.3308C0.777517 11.8096 0.685012 11.0983 0.622508 10.3832L0.612507 10.252L0.602506 10.122C0.540457 9.27492 0.50627 8.42607 0.5 7.57679L0.5 7.42303C0.5025 7.15427 0.512501 6.22546 0.580005 5.20039L0.588756 5.07164L0.592506 5.00663L0.602506 4.87662L0.630008 4.5516L0.642509 4.42159C0.702513 3.7728 0.791268 3.14276 0.917526 2.66898C1.03125 2.24419 1.25446 1.85668 1.56487 1.54517C1.87527 1.23367 2.26199 1.00909 2.68639 0.893874C3.29517 0.731364 4.61651 0.631357 6.00409 0.568853L6.21661 0.560103L6.43162 0.552603L6.53913 0.548852L6.75289 0.540102C7.9426 0.501854 9.1328 0.4806 10.3231 0.476348L10.5644 0.475098ZM8.5005 4.48785V10.5107L13.6971 7.50054L8.5005 4.48785Z" fill="white"/>
</svg>
