<svg width="21" height="22" viewBox="0 0 21 22" fill="none" xmlns="http://www.w3.org/2000/svg">
<path d="M4.8125 3.125C3.605 3.125 2.625 4.105 2.625 5.3125V16.6875C2.625 17.895 3.605 18.875 4.8125 18.875H16.1875C17.395 18.875 18.375 17.895 18.375 16.6875V14.0625C18.375 13.7144 18.5133 13.3806 18.7594 13.1344C19.0056 12.8883 19.3394 12.75 19.6875 12.75C20.0356 12.75 20.3694 12.8883 20.6156 13.1344C20.8617 13.3806 21 13.7144 21 14.0625V16.6875C21 17.9639 20.493 19.1879 19.5905 20.0905C18.6879 20.993 17.4639 21.5 16.1875 21.5H4.8125C3.53615 21.5 2.31207 20.993 1.40955 20.0905C0.50703 19.1879 0 17.9639 0 16.6875V5.3125C0 4.03615 0.50703 2.81207 1.40955 1.90955C2.31207 1.00703 3.53615 0.5 4.8125 0.5H7.4375C7.7856 0.5 8.11944 0.638281 8.36558 0.884422C8.61172 1.13056 8.75 1.4644 8.75 1.8125C8.75 2.1606 8.61172 2.49444 8.36558 2.74058C8.11944 2.98672 7.7856 3.125 7.4375 3.125H4.8125ZM10.5 1.8125C10.5 1.4644 10.6383 1.13056 10.8844 0.884422C11.1306 0.638281 11.4644 0.5 11.8125 0.5H19.6875C20.0356 0.5 20.3694 0.638281 20.6156 0.884422C20.8617 1.13056 21 1.4644 21 1.8125V9.6875C21 10.0356 20.8617 10.3694 20.6156 10.6156C20.3694 10.8617 20.0356 11 19.6875 11C19.3394 11 19.0056 10.8617 18.7594 10.6156C18.5133 10.3694 18.375 10.0356 18.375 9.6875V4.98175L12.74 10.6168C12.6189 10.742 12.474 10.842 12.3138 10.9107C12.1537 10.9794 11.9814 11.0155 11.8072 11.0169C11.6329 11.0184 11.4601 10.9851 11.2988 10.919C11.1375 10.8529 10.991 10.7554 10.8679 10.6321C10.7447 10.5088 10.6473 10.3623 10.5814 10.2009C10.5155 10.0396 10.4823 9.86674 10.4839 9.69247C10.4855 9.5182 10.5218 9.34599 10.5907 9.18589C10.6595 9.0258 10.7596 8.88101 10.885 8.76L16.52 3.125H11.8125C11.4644 3.125 11.1306 2.98672 10.8844 2.74058C10.6383 2.49444 10.5 2.1606 10.5 1.8125Z" fill="white"/>
</svg>
