<svg width="23" height="22" viewBox="0 0 23 22" fill="none" xmlns="http://www.w3.org/2000/svg">
<path d="M15.9 15.4V19.8C15.9 21.01 14.91 22 13.7 22L2.7 22C2.11652 22 1.55695 21.7682 1.14437 21.3556C0.731785 20.9431 0.5 20.3835 0.5 19.8V8.8C0.5 8.21652 0.731785 7.65695 1.14437 7.24436C1.55695 6.83179 2.11652 6.6 2.7 6.6H7.1V2.2C7.1 1.61652 7.33179 1.05695 7.74436 0.644365C8.15695 0.231785 8.71652 0 9.3 0H20.3C20.8835 0 21.4431 0.231785 21.8556 0.644365C22.2682 1.05695 22.5 1.61652 22.5 2.2L22.5 13.2C22.5 14.41 21.51 15.4 20.3 15.4H15.9ZM13.7 15.4L9.3 15.4C8.71652 15.4 8.15695 15.1682 7.74436 14.7556C7.33179 14.3431 7.1 13.7835 7.1 13.2V8.8H2.7V19.8L13.7 19.8V15.4ZM20.3 13.2L20.3 2.2H9.3V13.2L20.3 13.2Z" fill="white"/>
</svg>
